<svg xmlns="http://www.w3.org/2000/svg" viewBox="0 0 250 250"><defs><style>.cls-1{fill:#fff;}.cls-2{fill:#5cbceb;}</style></defs><title>Asset 3</title><g id="Layer_2" data-name="Layer 2"><g id="Layer_1-2" data-name="Layer 1"><rect class="cls-1" width="250" height="250" rx="44"/><polygon class="cls-2" points="33.44 202.55 46.52 214.44 90.91 176 90.91 207.31 156.71 207.31 156.71 176 203.08 213.25 216.56 201.76 154.73 135.17 93.69 135.17 33.44 202.55"/><path class="cls-2" d="M77.83,66.6,81,92.37s7.14,31.7,45.19,31.7S168.4,81.86,168.4,81.86l.2-29.92S165,37.27,138.87,36.08s-46-2-61,16.65Z"/><path class="cls-1" d="M91.31,73.34h6.34l2,2h7.93l11.49-5.94-2.77,5.94h5.55L125,73.74h30.52V90.38s0,24.18-30.52,24.18c0,0-33.69.79-33.69-22.59Z"/></g></g></svg>