<svg xmlns="http://www.w3.org/2000/svg" viewBox="0 0 100 100"><defs><style>.cls-1{fill:#fff;}.cls-2{fill:#5cbceb;}</style></defs><title>Asset 4</title><g id="Layer_2" data-name="Layer 2"><g id="Layer_1-2" data-name="Layer 1"><circle class="cls-1" cx="50" cy="50" r="50"/><rect class="cls-2" x="45.26" y="42.24" width="34.27" height="34.27" rx="5.06"/><path class="cls-2" d="M34.38,69.05a6.26,6.26,0,0,1-4.46-1.85L13.18,50.47a6.31,6.31,0,0,1,0-8.91L29.92,24.82a6.31,6.31,0,0,1,8.91,0l16.8,16.81a6.2,6.2,0,0,1,0,8.77L38.83,67.2A6.26,6.26,0,0,1,34.38,69.05Z"/><path class="cls-1" d="M34.38,24a5.24,5.24,0,0,1,3.74,1.55L54.93,42.34a5.2,5.2,0,0,1,0,7.35L38.12,66.5a5.3,5.3,0,0,1-7.49,0L13.89,49.76a5.29,5.29,0,0,1,0-7.49L30.63,25.53A5.25,5.25,0,0,1,34.38,24m0-2a7.3,7.3,0,0,0-5.17,2.13L12.48,40.85a7.3,7.3,0,0,0,0,10.32L29.21,67.91a7.3,7.3,0,0,0,10.33,0L56.34,51.1a7.2,7.2,0,0,0,0-10.18L39.54,24.11A7.3,7.3,0,0,0,34.38,22Z"/><circle class="cls-1" cx="34.27" cy="31.9" r="2.8"/><circle class="cls-1" cx="20.69" cy="46.12" r="2.8"/><circle class="cls-1" cx="34.27" cy="46.12" r="2.8"/><circle class="cls-1" cx="34.27" cy="59.48" r="2.8"/><circle class="cls-1" cx="47.63" cy="46.12" r="2.8"/><circle class="cls-1" cx="61.64" cy="59.48" r="2.8"/></g></g></svg>