<svg xmlns="http://www.w3.org/2000/svg" viewBox="0 0 250 250"><defs><style>.cls-1{fill:#fff;}.cls-2{fill:#5cbceb;}</style></defs><title>Asset 2</title><g id="Layer_2" data-name="Layer 2"><g id="Layer_1-2" data-name="Layer 1"><rect class="cls-1" width="250" height="250" rx="44.75"/><path class="cls-2" d="M78.41,93.17S65,107.47,67.34,132.84c0,0-20.75-6.46-18.45-25.83S78.41,83,78.41,83s3.69-51.2,44.74-51.2,50.74,24.44,53,50.73c0,0,33.67,11.54,29.52,35.06,0,0-2.31,12-19.37,15.22,0,0-1.39-30-12-39.67,0,0-7.84,39.67-44.74,39.67C85.33,132.84,78.41,93.17,78.41,93.17Z"/><path class="cls-1" d="M91.79,84.41H95l12-14.76s3.69,8.3,1.85,16.6c0,0,17.06-7.84,20.75-20.75V82.1H161s2.3,37.83-31.83,37.83S91.79,84.41,91.79,84.41Z"/><path class="cls-2" d="M51.66,201.11l17.53,5.07L96.4,169.74s4.15-3.23,4.15,0v21.68L91.79,202H161l-8.3-12.45V170.2s2.07-3,5.07,0,26.29,36,26.29,36L203,202l-46.12-61.81H97.32Z"/></g></g></svg>